<?xml version="1.0" encoding="UTF-8" standalone="no"?>
<svg
   xmlns:dc="http://purl.org/dc/elements/1.1/"
   xmlns:cc="http://creativecommons.org/ns#"
   xmlns:rdf="http://www.w3.org/1999/02/22-rdf-syntax-ns#"
   xmlns:svg="http://www.w3.org/2000/svg"
   xmlns="http://www.w3.org/2000/svg"
   xmlns:xlink="http://www.w3.org/1999/xlink"
   xmlns:sodipodi="http://sodipodi.sourceforge.net/DTD/sodipodi-0.dtd"
   xmlns:inkscape="http://www.inkscape.org/namespaces/inkscape"
   width="439.70401"
   height="108.47997"
   viewBox="0 0 329.77801 81.359977"
   version="1.2"
   id="svg68"
   sodipodi:docname="Enteruptors White No Padding.svg"
   inkscape:version="0.92.3 (2405546, 2018-03-11)">
  <metadata
     id="metadata72">
    <rdf:RDF>
      <cc:Work
         rdf:about="">
        <dc:format>image/svg+xml</dc:format>
        <dc:type
           rdf:resource="http://purl.org/dc/dcmitype/StillImage" />
        <dc:title></dc:title>
      </cc:Work>
    </rdf:RDF>
  </metadata>
  <sodipodi:namedview
     pagecolor="#ffffff"
     bordercolor="#666666"
     borderopacity="1"
     objecttolerance="10"
     gridtolerance="10"
     guidetolerance="10"
     inkscape:pageopacity="0"
     inkscape:pageshadow="2"
     inkscape:window-width="2736"
     inkscape:window-height="1714"
     id="namedview70"
     showgrid="false"
     fit-margin-top="22"
     fit-margin-left="11"
     fit-margin-right="11"
     fit-margin-bottom="15"
     inkscape:zoom="3.4821875"
     inkscape:cx="138.73552"
     inkscape:cy="53.581011"
     inkscape:window-x="-12"
     inkscape:window-y="-12"
     inkscape:window-maximized="1"
     inkscape:current-layer="svg68"
     showguides="false" />
  <defs
     id="defs32">
    <symbol
       overflow="visible"
       id="a"
       style="overflow:visible">
      <path
         d="M 29.484,-14.344 H 8.594 c 0.144,2.844 1.094,5.11 2.844,6.797 1.757,1.68 4.03,2.516 6.812,2.516 3.875,0 7.445,-1.207 10.719,-3.625 v 5.75 c -1.813,1.21 -3.61,2.074 -5.39,2.594 -1.774,0.507 -3.852,0.765 -6.235,0.765 -3.274,0 -5.922,-0.676 -7.953,-2.031 C 7.367,-2.93 5.75,-4.754 4.53,-7.047 c -1.21,-2.3 -1.812,-4.957 -1.812,-7.969 0,-4.52 1.281,-8.195 3.844,-11.03 2.562,-2.833 5.882,-4.25 9.968,-4.25 3.938,0 7.078,1.382 9.422,4.14 2.352,2.75 3.531,6.445 3.531,11.078 z M 8.72,-17.859 h 14.953 c -0.149,-2.344 -0.844,-4.149 -2.094,-5.422 -1.25,-1.27 -2.933,-1.907 -5.047,-1.907 -2.105,0 -3.836,0.637 -5.187,1.907 -1.345,1.273 -2.22,3.078 -2.626,5.421 z m 0,0"
         id="path2"
         inkscape:connector-curvature="0" />
    </symbol>
    <symbol
       overflow="visible"
       id="b"
       style="overflow:visible">
      <path
         d="m 10.469,-29.719 v 6.828 l 0.312,-0.515 c 2.844,-4.594 5.688,-6.89 8.531,-6.89 2.22,0 4.532,1.12 6.938,3.358 l -3.094,5.172 c -2.043,-1.937 -3.937,-2.906 -5.687,-2.906 -1.899,0 -3.54,0.906 -4.922,2.719 -1.387,1.805 -2.078,3.945 -2.078,6.422 V 0 H 4.547 v -29.719 z m 0,0"
         id="path5"
         inkscape:connector-curvature="0" />
    </symbol>
    <symbol
       overflow="visible"
       id="c"
       style="overflow:visible">
      <path
         d="M 23.094,0 V -3.781 A 13.853,13.853 0 0 1 18.812,-0.61 C 17.207,0.14 15.61,0.516 14.017,0.516 12.142,0.516 10.411,0.046 8.829,-0.891 7.243,-1.828 6.048,-3.098 5.235,-4.703 4.431,-6.305 4.032,-8.969 4.032,-12.687 V -29.72 h 5.89 v 16.969 c 0,3.117 0.442,5.293 1.329,6.531 0.895,1.242 2.46,1.86 4.703,1.86 2.8,0 5.18,-1.368 7.14,-4.11 V -29.72 H 28.97 V 0 Z m 0,0"
         id="path8"
         inkscape:connector-curvature="0" />
    </symbol>
    <symbol
       overflow="visible"
       id="d"
       style="overflow:visible">
      <path
         d="m 3.781,15.14 v -44.859 h 10.297 c 5.281,0 9.39,1.32 12.328,3.953 2.938,2.625 4.407,6.293 4.407,11 0,4.461 -1.387,8.121 -4.157,10.985 -2.761,2.867 -6.289,4.297 -10.578,4.297 -1.898,0 -3.996,-0.422 -6.297,-1.266 V 15.14 Z M 13.953,-24.219 H 9.781 v 18.282 c 1.813,0.93 3.707,1.39 5.688,1.39 2.758,0 5.015,-0.957 6.765,-2.875 1.758,-1.914 2.641,-4.383 2.641,-7.406 0,-1.938 -0.418,-3.645 -1.25,-5.125 -0.836,-1.488 -1.969,-2.57 -3.406,-3.25 -1.43,-0.676 -3.516,-1.016 -6.266,-1.016 z m 0,0"
         id="path11"
         inkscape:connector-curvature="0" />
    </symbol>
    <symbol
       overflow="visible"
       id="e"
       style="overflow:visible">
      <path
         d="m 0,-25 11.047,-10.844 v 6.125 h 9.39 v 5.297 h -9.39 v 14.578 c 0,3.399 1.41,5.094 4.234,5.094 2.102,0 4.328,-0.707 6.672,-2.125 v 5.484 c -2.262,1.274 -4.726,1.907 -7.39,1.907 -2.688,0 -4.93,-0.786 -6.72,-2.36 A 6.894,6.894 0 0 1 6.453,-3.437 C 6.086,-4.031 5.781,-4.805 5.531,-5.766 5.289,-6.723 5.171,-8.546 5.171,-11.234 V -24.422 H 0 Z m 0,0"
         id="path14"
         inkscape:connector-curvature="0" />
    </symbol>
    <symbol
       overflow="visible"
       id="f"
       style="overflow:visible">
      <path
         d="m 18.375,-29.781 c 4.52,0 8.273,1.46 11.266,4.375 3,2.918 4.5,6.586 4.5,11 0,4.281 -1.524,7.84 -4.563,10.672 -3.031,2.836 -6.851,4.25 -11.453,4.25 -4.46,0 -8.188,-1.438 -11.188,-4.313 -2.992,-2.875 -4.484,-6.46 -4.484,-10.765 0,-4.352 1.508,-7.977 4.531,-10.876 3.032,-2.894 6.829,-4.343 11.391,-4.343 z m -0.328,5.297 c -2.813,0 -5.125,0.93 -6.938,2.78 -1.812,1.856 -2.718,4.216 -2.718,7.079 0,2.844 0.925,5.168 2.78,6.969 1.852,1.793 4.235,2.687 7.142,2.687 2.882,0 5.242,-0.91 7.078,-2.734 1.843,-1.82 2.765,-4.149 2.765,-6.984 0,-2.82 -0.96,-5.16 -2.875,-7.016 -1.918,-1.852 -4.328,-2.781 -7.234,-2.781 z m 0,0"
         id="path17"
         inkscape:connector-curvature="0" />
    </symbol>
    <symbol
       overflow="visible"
       id="g"
       style="overflow:visible">
      <path
         d="m 2.719,-2.125 v -6.344 c 1.656,1.169 3.347,2.117 5.078,2.844 1.738,0.719 3.195,1.078 4.375,1.078 1.226,0 2.285,-0.3 3.172,-0.906 0.883,-0.602 1.328,-1.328 1.328,-2.172 0,-0.852 -0.29,-1.566 -0.86,-2.14 -0.574,-0.57 -1.808,-1.395 -3.703,-2.47 -3.793,-2.113 -6.277,-3.913 -7.453,-5.406 -1.168,-1.5 -1.75,-3.132 -1.75,-4.906 0,-2.281 0.883,-4.14 2.656,-5.578 1.782,-1.445 4.07,-2.172 6.875,-2.172 2.907,0 5.883,0.82 8.938,2.453 v 5.813 c -3.492,-2.102 -6.34,-3.157 -8.547,-3.157 -1.148,0 -2.07,0.247 -2.765,0.735 -0.7,0.48 -1.047,1.117 -1.047,1.906 0,0.688 0.316,1.344 0.953,1.969 0.633,0.625 1.75,1.383 3.344,2.265 l 2.093,1.204 c 4.946,2.793 7.422,5.89 7.422,9.297 0,2.43 -0.953,4.421 -2.86,5.984 -1.904,1.562 -4.354,2.344 -7.342,2.344 C 10.864,0.516 9.29,0.328 7.907,-0.047 6.531,-0.422 4.801,-1.113 2.72,-2.125 Z m 0,0"
         id="path20"
         inkscape:connector-curvature="0" />
    </symbol>
    <symbol
       overflow="visible"
       id="h"
       style="overflow:visible">
      <path
         d="m 10.047,-29.719 v 3.782 c 2.625,-2.907 5.601,-4.36 8.937,-4.36 1.852,0 3.578,0.48 5.172,1.438 a 9.327,9.327 0 0 1 3.625,3.953 c 0.832,1.668 1.25,4.308 1.25,7.922 V 0 h -5.875 v -16.922 c 0,-3.031 -0.465,-5.195 -1.39,-6.5 -0.93,-1.312 -2.48,-1.969 -4.657,-1.969 -2.773,0 -5.125,1.391 -7.062,4.172 V 0 H 4.03 v -29.719 z m 0,0"
         id="path23"
         inkscape:connector-curvature="0" />
    </symbol>
    <symbol
       overflow="visible"
       id="i"
       style="overflow:visible">
      <path
         d="m 2.266,0 h 0.843 v -5.89 h 2 V -6.594 H 0.281 v 0.703 h 1.985 z m 0,0"
         id="path26"
         inkscape:connector-curvature="0" />
    </symbol>
    <symbol
       overflow="visible"
       id="j"
       style="overflow:visible">
      <path
         d="M 0.906,0 H 1.672 V -3.625 C 1.672,-4.203 1.609,-5 1.562,-5.578 h 0.047 l 0.516,1.469 1.281,3.453 h 0.469 l 1.266,-3.454 0.53,-1.47 h 0.048 c -0.047,0.579 -0.11,1.376 -0.11,1.954 V 0 H 6.406 V -6.594 H 5.422 L 4.156,-3.047 3.688,-1.703 H 3.64 L 3.17,-3.047 1.89,-6.594 H 0.906 Z m 0,0"
         id="path29"
         inkscape:connector-curvature="0" />
    </symbol>
  </defs>
  <path
     d="M 3.4309906,4.0659861 V 62.596986 H 90.04499"
     id="path34"
     inkscape:export-xdpi="377.5"
     inkscape:export-ydpi="377.5"
     inkscape:connector-curvature="0"
     style="fill:none;stroke:#ffffff;stroke-width:1.18299997" />
  <g
     id="g66"
     inkscape:export-xdpi="377.5"
     inkscape:export-ydpi="377.5"
     style="fill:#ffffff"
     transform="translate(-44.34601,-61.063014)">
    <g
       transform="translate(-213.438,-292.957)"
       id="g58">
      <use
         xlink:href="#a"
         x="347.21701"
         y="408.98999"
         width="100%"
         height="100%"
         id="use36" />
      <use
         xlink:href="#b"
         x="376.918"
         y="408.98999"
         width="100%"
         height="100%"
         id="use38" />
      <use
         xlink:href="#c"
         x="401.12799"
         y="408.98999"
         width="100%"
         height="100%"
         id="use40" />
      <use
         xlink:href="#d"
         x="432.21701"
         y="408.98999"
         width="100%"
         height="100%"
         id="use42" />
      <use
         xlink:href="#e"
         x="463.30701"
         y="408.98999"
         width="100%"
         height="100%"
         id="use44" />
      <use
         xlink:href="#f"
         x="483.35001"
         y="408.98999"
         width="100%"
         height="100%"
         id="use46" />
      <use
         xlink:href="#b"
         x="517.87903"
         y="408.98999"
         width="100%"
         height="100%"
         id="use48" />
      <use
         xlink:href="#g"
         x="542.08899"
         y="408.98999"
         width="100%"
         height="100%"
         id="use50" />
      <use
         xlink:href="#a"
         x="263.31601"
         y="408.98999"
         width="100%"
         height="100%"
         id="use52" />
      <use
         xlink:href="#h"
         x="293.67801"
         y="408.98999"
         width="100%"
         height="100%"
         id="use54" />
      <use
         xlink:href="#e"
         x="325.42899"
         y="408.98999"
         width="100%"
         height="100%"
         id="use56" />
    </g>
    <g
       transform="translate(-213.438,-292.957)"
       id="g64">
      <use
         xlink:href="#i"
         x="567.52399"
         y="377.11401"
         width="100%"
         height="100%"
         id="use60" />
      <use
         xlink:href="#j"
         x="572.90601"
         y="377.11401"
         width="100%"
         height="100%"
         id="use62" />
    </g>
  </g>
</svg>
